<svg width="961" height="536" viewBox="0 0 961 536" fill="none" xmlns="http://www.w3.org/2000/svg">
<g id="map-layout">
<rect id="Rectangle 1" x="0.5" y="0.5" width="960" height="535" stroke="black"/>
<rect id="Rectangle 2" x="0.5" y="0.5" width="960" height="49" fill="#D9D9D9" stroke="black"/>
<path id="Rectangle 3" d="M0.5 48.5H49.5L49.5 406.5H0.5L0.5 48.5Z" fill="#D9D9D9" stroke="black"/>
<path id="Rectangle 4" d="M911.5 48.5H960.5L960.5 406.5H911.5L911.5 48.5Z" fill="#D9D9D9" stroke="black"/>
<path id="S1_1"  d="M781.5 135.5H830.5V406.5H781.5V135.5Z" fill="#D9D9D9" stroke="black"/>
<g id="S1" class="spot">
<path id="Rectangle 9" d="M129.5 117C129.5 108.44 136.44 101.5 145 101.5L247 101.5C255.56 101.5 262.5 108.44 262.5 117V155C262.5 163.56 255.56 170.5 247 170.5L145 170.5C136.44 170.5 129.5 163.56 129.5 155V117Z" stroke="black"/>
<path id="S1_2" d="M194.773 132.273C194.705 131.697 194.428 131.25 193.943 130.932C193.458 130.614 192.864 130.455 192.159 130.455C191.644 130.455 191.193 130.538 190.807 130.705C190.424 130.871 190.125 131.1 189.909 131.392C189.697 131.684 189.591 132.015 189.591 132.386C189.591 132.697 189.665 132.964 189.812 133.188C189.964 133.407 190.157 133.591 190.392 133.739C190.627 133.883 190.873 134.002 191.131 134.097C191.388 134.187 191.625 134.261 191.841 134.318L193.023 134.636C193.326 134.716 193.663 134.826 194.034 134.966C194.409 135.106 194.767 135.297 195.108 135.54C195.453 135.778 195.737 136.085 195.96 136.46C196.184 136.835 196.295 137.295 196.295 137.841C196.295 138.47 196.131 139.038 195.801 139.545C195.475 140.053 194.998 140.456 194.369 140.756C193.744 141.055 192.985 141.205 192.091 141.205C191.258 141.205 190.536 141.07 189.926 140.801C189.32 140.532 188.843 140.157 188.494 139.676C188.15 139.195 187.955 138.636 187.909 138H189.364C189.402 138.439 189.549 138.803 189.807 139.091C190.068 139.375 190.398 139.587 190.795 139.727C191.197 139.864 191.629 139.932 192.091 139.932C192.629 139.932 193.112 139.845 193.54 139.67C193.968 139.492 194.307 139.246 194.557 138.932C194.807 138.614 194.932 138.242 194.932 137.818C194.932 137.432 194.824 137.117 194.608 136.875C194.392 136.633 194.108 136.436 193.756 136.284C193.403 136.133 193.023 136 192.614 135.886L191.182 135.477C190.273 135.216 189.553 134.843 189.023 134.358C188.492 133.873 188.227 133.239 188.227 132.455C188.227 131.803 188.403 131.235 188.756 130.75C189.112 130.261 189.589 129.883 190.188 129.614C190.79 129.341 191.462 129.205 192.205 129.205C192.955 129.205 193.621 129.339 194.205 129.608C194.788 129.873 195.25 130.237 195.591 130.699C195.936 131.161 196.117 131.686 196.136 132.273H194.773ZM202.499 129.364V141H201.089V130.841H201.021L198.18 132.727V131.295L201.089 129.364H202.499Z" fill="black"/>
</g>
<g id="S2" class="spot">
<path id="Rectangle 9_2" d="M129.5 270C129.5 261.44 136.44 254.5 145 254.5L247 254.5C255.56 254.5 262.5 261.44 262.5 270V308C262.5 316.56 255.56 323.5 247 323.5H145C136.44 323.5 129.5 316.56 129.5 308V270Z" stroke="black"/>
<path id="S2_2" d="M194.773 285.273C194.705 284.697 194.428 284.25 193.943 283.932C193.458 283.614 192.864 283.455 192.159 283.455C191.644 283.455 191.193 283.538 190.807 283.705C190.424 283.871 190.125 284.1 189.909 284.392C189.697 284.684 189.591 285.015 189.591 285.386C189.591 285.697 189.665 285.964 189.812 286.188C189.964 286.407 190.157 286.591 190.392 286.739C190.627 286.883 190.873 287.002 191.131 287.097C191.388 287.187 191.625 287.261 191.841 287.318L193.023 287.636C193.326 287.716 193.663 287.826 194.034 287.966C194.409 288.106 194.767 288.297 195.108 288.54C195.453 288.778 195.737 289.085 195.96 289.46C196.184 289.835 196.295 290.295 196.295 290.841C196.295 291.47 196.131 292.038 195.801 292.545C195.475 293.053 194.998 293.456 194.369 293.756C193.744 294.055 192.985 294.205 192.091 294.205C191.258 294.205 190.536 294.07 189.926 293.801C189.32 293.532 188.843 293.157 188.494 292.676C188.15 292.195 187.955 291.636 187.909 291H189.364C189.402 291.439 189.549 291.803 189.807 292.091C190.068 292.375 190.398 292.587 190.795 292.727C191.197 292.864 191.629 292.932 192.091 292.932C192.629 292.932 193.112 292.845 193.54 292.67C193.968 292.492 194.307 292.246 194.557 291.932C194.807 291.614 194.932 291.242 194.932 290.818C194.932 290.432 194.824 290.117 194.608 289.875C194.392 289.633 194.108 289.436 193.756 289.284C193.403 289.133 193.023 289 192.614 288.886L191.182 288.477C190.273 288.216 189.553 287.843 189.023 287.358C188.492 286.873 188.227 286.239 188.227 285.455C188.227 284.803 188.403 284.235 188.756 283.75C189.112 283.261 189.589 282.883 190.188 282.614C190.79 282.341 191.462 282.205 192.205 282.205C192.955 282.205 193.621 282.339 194.205 282.608C194.788 282.873 195.25 283.237 195.591 283.699C195.936 284.161 196.117 284.686 196.136 285.273H194.773ZM198.408 294V292.977L202.249 288.773C202.699 288.28 203.071 287.852 203.362 287.489C203.654 287.121 203.87 286.777 204.01 286.455C204.154 286.129 204.226 285.788 204.226 285.432C204.226 285.023 204.127 284.669 203.93 284.369C203.737 284.07 203.472 283.839 203.135 283.676C202.798 283.513 202.419 283.432 201.999 283.432C201.552 283.432 201.161 283.525 200.828 283.71C200.499 283.892 200.243 284.148 200.061 284.477C199.883 284.807 199.794 285.193 199.794 285.636H198.453C198.453 284.955 198.61 284.356 198.925 283.841C199.239 283.326 199.667 282.924 200.209 282.636C200.754 282.348 201.366 282.205 202.044 282.205C202.726 282.205 203.33 282.348 203.857 282.636C204.383 282.924 204.796 283.312 205.095 283.801C205.394 284.29 205.544 284.833 205.544 285.432C205.544 285.86 205.466 286.278 205.311 286.688C205.16 287.093 204.894 287.545 204.516 288.045C204.141 288.542 203.62 289.148 202.953 289.864L200.339 292.659V292.75H205.749V294H198.408Z" fill="black"/>
</g>
<g id="S6" class="spot">
<path id="Rectangle 9_3" d="M762.5 482C762.5 473.44 769.44 466.5 778 466.5H880C888.56 466.5 895.5 473.44 895.5 482V520C895.5 528.56 888.56 535.5 880 535.5H778C769.44 535.5 762.5 528.56 762.5 520V482Z" stroke="black"/>
<path id="S6_2" d="M827.773 497.273C827.705 496.697 827.428 496.25 826.943 495.932C826.458 495.614 825.864 495.455 825.159 495.455C824.644 495.455 824.193 495.538 823.807 495.705C823.424 495.871 823.125 496.1 822.909 496.392C822.697 496.684 822.591 497.015 822.591 497.386C822.591 497.697 822.665 497.964 822.812 498.188C822.964 498.407 823.157 498.591 823.392 498.739C823.627 498.883 823.873 499.002 824.131 499.097C824.388 499.187 824.625 499.261 824.841 499.318L826.023 499.636C826.326 499.716 826.663 499.826 827.034 499.966C827.409 500.106 827.767 500.297 828.108 500.54C828.453 500.778 828.737 501.085 828.96 501.46C829.184 501.835 829.295 502.295 829.295 502.841C829.295 503.47 829.131 504.038 828.801 504.545C828.475 505.053 827.998 505.456 827.369 505.756C826.744 506.055 825.985 506.205 825.091 506.205C824.258 506.205 823.536 506.07 822.926 505.801C822.32 505.532 821.843 505.157 821.494 504.676C821.15 504.195 820.955 503.636 820.909 503H822.364C822.402 503.439 822.549 503.803 822.807 504.091C823.068 504.375 823.398 504.587 823.795 504.727C824.197 504.864 824.629 504.932 825.091 504.932C825.629 504.932 826.112 504.845 826.54 504.67C826.968 504.492 827.307 504.246 827.557 503.932C827.807 503.614 827.932 503.242 827.932 502.818C827.932 502.432 827.824 502.117 827.608 501.875C827.392 501.633 827.108 501.436 826.756 501.284C826.403 501.133 826.023 501 825.614 500.886L824.182 500.477C823.273 500.216 822.553 499.843 822.023 499.358C821.492 498.873 821.227 498.239 821.227 497.455C821.227 496.803 821.403 496.235 821.756 495.75C822.112 495.261 822.589 494.883 823.188 494.614C823.79 494.341 824.462 494.205 825.205 494.205C825.955 494.205 826.621 494.339 827.205 494.608C827.788 494.873 828.25 495.237 828.591 495.699C828.936 496.161 829.117 496.686 829.136 497.273H827.773ZM835.271 506.159C834.794 506.152 834.317 506.061 833.839 505.886C833.362 505.712 832.927 505.419 832.533 505.006C832.139 504.589 831.822 504.027 831.584 503.318C831.345 502.606 831.226 501.712 831.226 500.636C831.226 499.606 831.322 498.693 831.516 497.898C831.709 497.098 831.989 496.426 832.357 495.881C832.724 495.331 833.167 494.915 833.686 494.631C834.209 494.347 834.798 494.205 835.453 494.205C836.105 494.205 836.684 494.335 837.192 494.597C837.703 494.854 838.12 495.214 838.442 495.676C838.764 496.138 838.972 496.67 839.067 497.273H837.68C837.552 496.75 837.302 496.316 836.93 495.972C836.559 495.627 836.067 495.455 835.453 495.455C834.552 495.455 833.841 495.847 833.322 496.631C832.807 497.415 832.548 498.515 832.544 499.932H832.635C832.847 499.61 833.099 499.335 833.391 499.108C833.686 498.877 834.012 498.699 834.368 498.574C834.724 498.449 835.101 498.386 835.499 498.386C836.165 498.386 836.775 498.553 837.328 498.886C837.881 499.216 838.324 499.672 838.658 500.256C838.991 500.835 839.158 501.5 839.158 502.25C839.158 502.97 838.997 503.629 838.675 504.227C838.353 504.822 837.9 505.295 837.317 505.648C836.737 505.996 836.055 506.167 835.271 506.159ZM835.271 504.909C835.749 504.909 836.177 504.79 836.555 504.551C836.938 504.312 837.239 503.992 837.459 503.591C837.682 503.189 837.794 502.742 837.794 502.25C837.794 501.769 837.686 501.331 837.47 500.938C837.258 500.54 836.964 500.223 836.589 499.989C836.218 499.754 835.794 499.636 835.317 499.636C834.957 499.636 834.622 499.708 834.311 499.852C834 499.992 833.728 500.186 833.493 500.432C833.262 500.678 833.08 500.96 832.947 501.278C832.815 501.593 832.749 501.924 832.749 502.273C832.749 502.735 832.857 503.167 833.072 503.568C833.292 503.97 833.591 504.294 833.97 504.54C834.353 504.786 834.786 504.909 835.271 504.909Z" fill="black"/>
</g>
<g id="S5" class="spot">
<path id="Rectangle 9_4" d="M530.5 482C530.5 473.44 537.44 466.5 546 466.5H648C656.56 466.5 663.5 473.44 663.5 482V520C663.5 528.56 656.56 535.5 648 535.5H546C537.44 535.5 530.5 528.56 530.5 520V482Z" stroke="black"/>
<path id="S5_2" d="M595.773 497.273C595.705 496.697 595.428 496.25 594.943 495.932C594.458 495.614 593.864 495.455 593.159 495.455C592.644 495.455 592.193 495.538 591.807 495.705C591.424 495.871 591.125 496.1 590.909 496.392C590.697 496.684 590.591 497.015 590.591 497.386C590.591 497.697 590.665 497.964 590.812 498.188C590.964 498.407 591.157 498.591 591.392 498.739C591.627 498.883 591.873 499.002 592.131 499.097C592.388 499.187 592.625 499.261 592.841 499.318L594.023 499.636C594.326 499.716 594.663 499.826 595.034 499.966C595.409 500.106 595.767 500.297 596.108 500.54C596.453 500.778 596.737 501.085 596.96 501.46C597.184 501.835 597.295 502.295 597.295 502.841C597.295 503.47 597.131 504.038 596.801 504.545C596.475 505.053 595.998 505.456 595.369 505.756C594.744 506.055 593.985 506.205 593.091 506.205C592.258 506.205 591.536 506.07 590.926 505.801C590.32 505.532 589.843 505.157 589.494 504.676C589.15 504.195 588.955 503.636 588.909 503H590.364C590.402 503.439 590.549 503.803 590.807 504.091C591.068 504.375 591.398 504.587 591.795 504.727C592.197 504.864 592.629 504.932 593.091 504.932C593.629 504.932 594.112 504.845 594.54 504.67C594.968 504.492 595.307 504.246 595.557 503.932C595.807 503.614 595.932 503.242 595.932 502.818C595.932 502.432 595.824 502.117 595.608 501.875C595.392 501.633 595.108 501.436 594.756 501.284C594.403 501.133 594.023 501 593.614 500.886L592.182 500.477C591.273 500.216 590.553 499.843 590.023 499.358C589.492 498.873 589.227 498.239 589.227 497.455C589.227 496.803 589.403 496.235 589.756 495.75C590.112 495.261 590.589 494.883 591.188 494.614C591.79 494.341 592.462 494.205 593.205 494.205C593.955 494.205 594.621 494.339 595.205 494.608C595.788 494.873 596.25 495.237 596.591 495.699C596.936 496.161 597.117 496.686 597.136 497.273H595.773ZM603.044 506.159C602.377 506.159 601.777 506.027 601.243 505.761C600.709 505.496 600.281 505.133 599.959 504.67C599.637 504.208 599.461 503.682 599.43 503.091H600.794C600.847 503.617 601.086 504.053 601.51 504.398C601.938 504.739 602.449 504.909 603.044 504.909C603.521 504.909 603.946 504.797 604.317 504.574C604.692 504.35 604.985 504.044 605.197 503.653C605.413 503.259 605.521 502.814 605.521 502.318C605.521 501.811 605.41 501.358 605.186 500.96C604.966 500.559 604.663 500.242 604.277 500.011C603.891 499.78 603.449 499.663 602.953 499.659C602.597 499.655 602.232 499.71 601.857 499.824C601.482 499.934 601.173 500.076 600.93 500.25L599.612 500.091L600.317 494.364H606.362V495.614H601.499L601.089 499.045H601.158C601.396 498.856 601.696 498.699 602.055 498.574C602.415 498.449 602.79 498.386 603.18 498.386C603.893 498.386 604.527 498.557 605.084 498.898C605.644 499.235 606.084 499.697 606.402 500.284C606.724 500.871 606.885 501.542 606.885 502.295C606.885 503.038 606.718 503.701 606.385 504.284C606.055 504.864 605.601 505.322 605.021 505.659C604.442 505.992 603.783 506.159 603.044 506.159Z" fill="black"/>
</g>
<g id="S4" class="spot">
<path id="Rectangle 9_5" d="M298.5 482C298.5 473.44 305.44 466.5 314 466.5H416C424.56 466.5 431.5 473.44 431.5 482V520C431.5 528.56 424.56 535.5 416 535.5H314C305.44 535.5 298.5 528.56 298.5 520V482Z" stroke="black"/>
<path id="S4_2" d="M363.773 497.273C363.705 496.697 363.428 496.25 362.943 495.932C362.458 495.614 361.864 495.455 361.159 495.455C360.644 495.455 360.193 495.538 359.807 495.705C359.424 495.871 359.125 496.1 358.909 496.392C358.697 496.684 358.591 497.015 358.591 497.386C358.591 497.697 358.665 497.964 358.812 498.188C358.964 498.407 359.157 498.591 359.392 498.739C359.627 498.883 359.873 499.002 360.131 499.097C360.388 499.187 360.625 499.261 360.841 499.318L362.023 499.636C362.326 499.716 362.663 499.826 363.034 499.966C363.409 500.106 363.767 500.297 364.108 500.54C364.453 500.778 364.737 501.085 364.96 501.46C365.184 501.835 365.295 502.295 365.295 502.841C365.295 503.47 365.131 504.038 364.801 504.545C364.475 505.053 363.998 505.456 363.369 505.756C362.744 506.055 361.985 506.205 361.091 506.205C360.258 506.205 359.536 506.07 358.926 505.801C358.32 505.532 357.843 505.157 357.494 504.676C357.15 504.195 356.955 503.636 356.909 503H358.364C358.402 503.439 358.549 503.803 358.807 504.091C359.068 504.375 359.398 504.587 359.795 504.727C360.197 504.864 360.629 504.932 361.091 504.932C361.629 504.932 362.112 504.845 362.54 504.67C362.968 504.492 363.307 504.246 363.557 503.932C363.807 503.614 363.932 503.242 363.932 502.818C363.932 502.432 363.824 502.117 363.608 501.875C363.392 501.633 363.108 501.436 362.756 501.284C362.403 501.133 362.023 501 361.614 500.886L360.182 500.477C359.273 500.216 358.553 499.843 358.023 499.358C357.492 498.873 357.227 498.239 357.227 497.455C357.227 496.803 357.403 496.235 357.756 495.75C358.112 495.261 358.589 494.883 359.188 494.614C359.79 494.341 360.462 494.205 361.205 494.205C361.955 494.205 362.621 494.339 363.205 494.608C363.788 494.873 364.25 495.237 364.591 495.699C364.936 496.161 365.117 496.686 365.136 497.273H363.773ZM367.135 503.614V502.455L372.249 494.364H373.089V496.159H372.521L368.658 502.273V502.364H375.544V503.614H367.135ZM372.612 506V503.261V502.722V494.364H373.953V506H372.612Z" fill="black"/>
</g>
<g id="S3" class="spot">
<path id="Rectangle 9_6" d="M66.5 482C66.5 473.44 73.4396 466.5 82 466.5H184C192.56 466.5 199.5 473.44 199.5 482V520C199.5 528.56 192.56 535.5 184 535.5H82C73.4396 535.5 66.5 528.56 66.5 520L66.5 482Z" stroke="black"/>
<path id="S3_2" d="M131.773 497.273C131.705 496.697 131.428 496.25 130.943 495.932C130.458 495.614 129.864 495.455 129.159 495.455C128.644 495.455 128.193 495.538 127.807 495.705C127.424 495.871 127.125 496.1 126.909 496.392C126.697 496.684 126.591 497.015 126.591 497.386C126.591 497.697 126.665 497.964 126.812 498.188C126.964 498.407 127.157 498.591 127.392 498.739C127.627 498.883 127.873 499.002 128.131 499.097C128.388 499.187 128.625 499.261 128.841 499.318L130.023 499.636C130.326 499.716 130.663 499.826 131.034 499.966C131.409 500.106 131.767 500.297 132.108 500.54C132.453 500.778 132.737 501.085 132.96 501.46C133.184 501.835 133.295 502.295 133.295 502.841C133.295 503.47 133.131 504.038 132.801 504.545C132.475 505.053 131.998 505.456 131.369 505.756C130.744 506.055 129.985 506.205 129.091 506.205C128.258 506.205 127.536 506.07 126.926 505.801C126.32 505.532 125.843 505.157 125.494 504.676C125.15 504.195 124.955 503.636 124.909 503H126.364C126.402 503.439 126.549 503.803 126.807 504.091C127.068 504.375 127.398 504.587 127.795 504.727C128.197 504.864 128.629 504.932 129.091 504.932C129.629 504.932 130.112 504.845 130.54 504.67C130.968 504.492 131.307 504.246 131.557 503.932C131.807 503.614 131.932 503.242 131.932 502.818C131.932 502.432 131.824 502.117 131.608 501.875C131.392 501.633 131.108 501.436 130.756 501.284C130.403 501.133 130.023 501 129.614 500.886L128.182 500.477C127.273 500.216 126.553 499.843 126.023 499.358C125.492 498.873 125.227 498.239 125.227 497.455C125.227 496.803 125.403 496.235 125.756 495.75C126.112 495.261 126.589 494.883 127.188 494.614C127.79 494.341 128.462 494.205 129.205 494.205C129.955 494.205 130.621 494.339 131.205 494.608C131.788 494.873 132.25 495.237 132.591 495.699C132.936 496.161 133.117 496.686 133.136 497.273H131.773ZM139.339 506.159C138.589 506.159 137.921 506.03 137.334 505.773C136.75 505.515 136.286 505.157 135.942 504.699C135.601 504.237 135.415 503.701 135.385 503.091H136.817C136.847 503.466 136.976 503.79 137.203 504.062C137.43 504.331 137.728 504.54 138.095 504.688C138.463 504.835 138.87 504.909 139.317 504.909C139.817 504.909 140.26 504.822 140.646 504.648C141.033 504.473 141.336 504.231 141.555 503.92C141.775 503.61 141.885 503.25 141.885 502.841C141.885 502.413 141.779 502.036 141.567 501.71C141.355 501.381 141.044 501.123 140.635 500.938C140.226 500.752 139.726 500.659 139.135 500.659H138.203V499.409H139.135C139.597 499.409 140.002 499.326 140.351 499.159C140.703 498.992 140.978 498.758 141.175 498.455C141.375 498.152 141.476 497.795 141.476 497.386C141.476 496.992 141.389 496.65 141.214 496.358C141.04 496.066 140.794 495.839 140.476 495.676C140.161 495.513 139.79 495.432 139.362 495.432C138.961 495.432 138.582 495.506 138.226 495.653C137.874 495.797 137.586 496.008 137.362 496.284C137.139 496.557 137.018 496.886 136.999 497.273H135.635C135.658 496.663 135.841 496.129 136.186 495.67C136.531 495.208 136.982 494.848 137.538 494.591C138.099 494.333 138.714 494.205 139.385 494.205C140.105 494.205 140.722 494.35 141.237 494.642C141.752 494.93 142.148 495.311 142.425 495.784C142.701 496.258 142.839 496.769 142.839 497.318C142.839 497.973 142.667 498.532 142.322 498.994C141.982 499.456 141.518 499.777 140.93 499.955V500.045C141.665 500.167 142.239 500.479 142.652 500.983C143.065 501.483 143.271 502.102 143.271 502.841C143.271 503.473 143.099 504.042 142.754 504.545C142.413 505.045 141.947 505.439 141.357 505.727C140.766 506.015 140.093 506.159 139.339 506.159Z" fill="black"/>
</g>
<path id="Rectangle 6" d="M665.5 135.5H714.5V406.5H665.5V135.5Z" fill="#D9D9D9" stroke="black"/>
<path id="Rectangle 7" d="M549.5 135.5H598.5V406.5H549.5V135.5Z" fill="#D9D9D9" stroke="black"/>
<path id="Rectangle 8" d="M433.5 135.5H482.5L482.5 406.5H433.5L433.5 135.5Z" fill="#D9D9D9" stroke="black"/>
</g>
</svg>
